<svg width="11" height="11" viewBox="0 0 11 11" fill="none" xmlns="http://www.w3.org/2000/svg">
<path d="M5.8832 0.784427C5.8832 0.350541 5.53266 0 5.09877 0C4.66489 0 4.31435 0.350541 4.31435 0.784427V4.31435H0.784427C0.350541 4.31435 0 4.66489 0 5.09877C0 5.53266 0.350541 5.8832 0.784427 5.8832H4.31435V9.41312C4.31435 9.84701 4.66489 10.1975 5.09877 10.1975C5.53266 10.1975 5.8832 9.84701 5.8832 9.41312V5.8832H9.41312C9.84701 5.8832 10.1975 5.53266 10.1975 5.09877C10.1975 4.66489 9.84701 4.31435 9.41312 4.31435H5.8832V0.784427Z" fill="white"/>
</svg>
