<svg width="10" height="11" viewBox="0 0 10 11" fill="none" xmlns="http://www.w3.org/2000/svg">
<path d="M2.7373 0.365825C2.84663 0.140543 3.07136 0 3.31634 0H5.75399C5.99897 0 6.22371 0.140543 6.33304 0.365825L6.47881 0.661379H8.42245C8.78081 0.661379 9.07033 0.956932 9.07033 1.32276C9.07033 1.68858 8.78081 1.98414 8.42245 1.98414H0.647881C0.289522 1.98414 0 1.68858 0 1.32276C0 0.956932 0.289522 0.661379 0.647881 0.661379H2.59152L2.7373 0.365825ZM0.647881 2.64551H8.42245V9.2593C8.42245 9.98888 7.84139 10.5821 7.12669 10.5821H1.94364C1.22895 10.5821 0.647881 9.98888 0.647881 9.2593V2.64551ZM2.59152 3.96827C2.41336 3.96827 2.26758 4.11708 2.26758 4.29896V8.92861C2.26758 9.11049 2.41336 9.2593 2.59152 9.2593C2.76969 9.2593 2.91546 9.11049 2.91546 8.92861V4.29896C2.91546 4.11708 2.76969 3.96827 2.59152 3.96827ZM4.53517 3.96827C4.357 3.96827 4.21123 4.11708 4.21123 4.29896V8.92861C4.21123 9.11049 4.357 9.2593 4.53517 9.2593C4.71333 9.2593 4.85911 9.11049 4.85911 8.92861V4.29896C4.85911 4.11708 4.71333 3.96827 4.53517 3.96827ZM6.47881 3.96827C6.30064 3.96827 6.15487 4.11708 6.15487 4.29896V8.92861C6.15487 9.11049 6.30064 9.2593 6.47881 9.2593C6.65698 9.2593 6.80275 9.11049 6.80275 8.92861V4.29896C6.80275 4.11708 6.65698 3.96827 6.47881 3.96827Z" fill="white"/>
</svg>
