<svg width="11" height="11" viewBox="0 0 11 11" fill="none" xmlns="http://www.w3.org/2000/svg">
<path d="M9.37956 0.326673C8.94399 -0.108891 8.23993 -0.108891 7.80436 0.326673L7.20571 0.923337L9.15282 2.87045L9.75148 2.2718C10.187 1.83623 10.187 1.13217 9.75148 0.696605L9.37956 0.326673ZM3.42883 4.70221C3.30751 4.82353 3.21403 4.9727 3.16033 5.13777L2.57162 6.9039C2.51394 7.07494 2.55969 7.26389 2.68698 7.39316C2.81426 7.52244 3.00321 7.5662 3.17624 7.50852L4.94237 6.91981C5.10545 6.86611 5.25462 6.77263 5.37793 6.65131L8.70533 3.32193L6.75622 1.37282L3.42883 4.70221ZM1.90932 1.16797C0.855218 1.16797 0 2.02319 0 3.07729V8.16883C0 9.22293 0.855218 10.0782 1.90932 10.0782H7.00086C8.05496 10.0782 8.91018 9.22293 8.91018 8.16883V6.2595C8.91018 5.90747 8.62577 5.62306 8.27374 5.62306C7.92171 5.62306 7.6373 5.90747 7.6373 6.2595V8.16883C7.6373 8.52086 7.35289 8.80527 7.00086 8.80527H1.90932C1.55729 8.80527 1.27288 8.52086 1.27288 8.16883V3.07729C1.27288 2.72526 1.55729 2.44085 1.90932 2.44085H3.81865C4.17068 2.44085 4.45509 2.15644 4.45509 1.80441C4.45509 1.45238 4.17068 1.16797 3.81865 1.16797H1.90932Z" fill="white"/>
</svg>
